<svg xmlns="http://www.w3.org/2000/svg" viewBox="0 0 64 64" role="img" aria-labelledby="sogon-mark-title sogon-mark-desc">
  <title id="sogon-mark-title">Sogon.zip 심볼</title>
  <desc id="sogon-mark-desc">두 사람의 취향이 S자 지퍼로 합쳐져 하트 모양 데이트 핀으로 이어지는 심볼</desc>
  <defs>
    <linearGradient id="sogon-mark-track" x1="8" y1="7" x2="56" y2="57" gradientUnits="userSpaceOnUse">
      <stop stop-color="#F58DAE"/>
      <stop offset=".5" stop-color="#CD79B7"/>
      <stop offset="1" stop-color="#8D76D8"/>
    </linearGradient>
    <linearGradient id="sogon-mark-pin" x1="43" y1="43" x2="57" y2="59" gradientUnits="userSpaceOnUse">
      <stop stop-color="#AB96EB"/>
      <stop offset="1" stop-color="#8068D2"/>
    </linearGradient>
  </defs>
  <g transform="translate(64 0) scale(-1 1)">
    <circle cx="7.5" cy="9.5" r="4.5" fill="#F6A0BA"/>
    <circle cx="18.5" cy="5.5" r="3.5" fill="#AE99E8"/>
    <path d="M8 10 14.5 15M18.5 6 14.5 15" fill="none" stroke="url(#sogon-mark-track)" stroke-width="4.5" stroke-linecap="round"/>
    <path d="M14.5 15C22 6.5 46 7 50.5 16.5 55 26 44 30.5 32 32.5 20 34.5 9 38.5 12.5 48.5 16 58.5 39.5 59.5 50.5 50" fill="none" stroke="url(#sogon-mark-track)" stroke-width="11" stroke-linecap="round" stroke-linejoin="round"/>
    <path d="M14.5 15C22 6.5 46 7 50.5 16.5 55 26 44 30.5 32 32.5 20 34.5 9 38.5 12.5 48.5 16 58.5 39.5 59.5 50.5 50" fill="none" stroke="#FFF9FB" stroke-width="2.2" stroke-linecap="round" stroke-dasharray="1 4.2"/>
    <g transform="translate(32 32.5) rotate(-10)">
      <rect x="-4.8" y="-4" width="9.6" height="8" rx="2.5" fill="#FFF9FB"/>
      <path d="M0 3.5v5" stroke="#FFF9FB" stroke-width="2.4" stroke-linecap="round"/>
      <circle cx="0" cy="-.2" r="1.25" fill="#B86BAC"/>
    </g>
    <path fill="url(#sogon-mark-pin)" d="M50.5 42.5a8.5 8.5 0 0 1 8.5 8.4c0 6-8.5 11-8.5 11S42 56.9 42 50.9a8.5 8.5 0 0 1 8.5-8.4Z"/>
    <path fill="#FFF9FB" d="M50.5 55.3c-.3 0-.8-.4-2.1-1.5-1.5-1.3-2.4-2.2-2.4-3.6a2.2 2.2 0 0 1 2.2-2.3c.9 0 1.7.5 2.3 1.3.6-.8 1.4-1.3 2.3-1.3a2.2 2.2 0 0 1 2.2 2.3c0 1.4-.9 2.3-2.4 3.6-1.3 1.1-1.8 1.5-2.1 1.5Z"/>
  </g>
</svg>
